<svg width="344" height="314" viewBox="0 0 344 314" fill="none" xmlns="http://www.w3.org/2000/svg">
<path d="M202.452 267.413C198.472 264.479 195.913 263.57 191.535 261.931C186.299 259.969 180.807 260.732 176.07 261.601C169.198 262.863 142.909 267.095 147.648 271.933C150.848 275.195 157.114 279.058 163.303 279.821C170.123 280.669 177.369 278.21 183.437 276.685C187.834 275.575 190.185 275.269 198.31 273.217C200.373 272.693 203.77 272.248 204.173 270.31C204.466 268.9 202.951 267.781 202.452 267.413ZM198.823 271.246C196.651 271.737 194.997 272.263 188.119 273.758C177.591 276.043 170.778 278.933 163.522 278.035C157.762 277.322 151.921 273.721 148.919 270.799C149.327 269.741 155.305 267.656 162.248 266.155C167.356 265.052 172.491 264.087 176.394 263.371C181.351 262.462 186.2 261.855 190.903 263.615C195.238 265.239 197.594 266.067 201.383 268.862C202.362 269.584 202.411 269.939 202.411 269.939C202.218 270.472 199.752 271.031 198.823 271.246Z" fill="#E0E0E0" fill-opacity="0.8"/>
<path d="M231.043 239.533C229.468 238.343 226.928 236.964 223.714 235.218C217.631 231.912 208.156 226.589 199.253 222.678C195.873 221.193 189.582 220.629 184.292 221.337C176.365 222.397 117.427 233.093 89.0354 239.609C56.1476 247.158 43.4162 251.35 38.5274 253.541C37.1972 254.136 36.4376 254.876 36.2738 255.74C36.0578 256.869 36.8786 257.551 37.415 258.114C41.7998 262.715 46.9478 265.804 53.1056 269.21C61.8806 274.064 69.563 278.719 79.0832 278.719C84.8954 278.719 93.9494 276.134 106.981 272.633C136.435 264.724 144.315 262.874 193.61 252.842C212.469 249.005 227.364 245.973 230.12 244.978C233.498 243.756 234.013 241.783 231.041 239.537L231.043 239.533ZM38.7218 256.872C38.1278 256.25 37.4024 256.016 39.2654 255.182C43.2056 253.418 54.9668 249.275 89.4386 241.362C117.79 234.855 176.622 224.177 184.531 223.121C188.704 222.563 195.043 222.793 198.53 224.325C200.042 224.989 202.02 225.9 204.47 227.093C151.179 235.677 97.3136 247.302 44.3036 261.686C41.2166 259.488 39.8036 258.006 38.7218 256.872ZM46.2656 263.028C99.5528 248.627 153.691 236.993 207.226 228.461C212.845 231.289 217.068 233.634 220.533 235.533C166.423 243.482 112.437 255.38 60.023 270.952C55.7084 268.626 50.1842 265.608 46.2656 263.028ZM229.51 243.282C224.237 245.187 167.712 255.852 140.08 262.319C112.995 268.659 92.8964 275.083 82.9838 276.626C78.0644 277.389 72.686 276.503 69.5342 275.285C66.3356 274.046 64.8218 273.445 62.318 272.163C114.851 256.651 168.937 244.798 223.136 236.954C226.145 238.588 228.536 239.895 229.956 240.969C231.58 242.197 231.659 242.507 229.508 243.282H229.51Z" fill="#E0E0E0" fill-opacity="0.8"/>
<path d="M277.18 254.191C261.6 242.766 225.9 223.263 207.776 215.298C204.45 213.836 199.163 212.931 193.624 212.735C200.059 209.885 203.163 204.928 203.748 199.586C204.932 188.753 205.724 174.769 206.149 159.89C202.241 160.945 198.128 161.584 194.103 161.863C193.866 171.628 193.405 180.664 192.688 187.996C192.282 192.148 189.569 195.833 185.604 197.615C157.255 210.353 79.0508 229.703 31.1528 232.238C24.8546 232.562 19.2223 228.391 18.0757 222.512C11.4355 188.431 11.7793 143.941 17.3071 117.562C17.9929 114.293 20.1511 111.413 23.2309 109.662C50.3659 94.2339 146.77 73.5663 179.026 73.6023C185.294 73.6095 190.599 78.0573 191.436 83.9559C196.011 84.1233 200.707 84.9495 205.198 86.3139C204.966 82.8903 204.703 79.7439 204.41 76.9431C203.575 68.9187 196.908 62.7393 188.899 62.5719C153.119 61.8321 44.5231 84.1683 13.5037 102.017C9.56357 104.283 6.76097 108.094 5.81597 112.471C-0.995234 144.002 -2.12563 196.553 4.60097 236.695C5.90057 244.453 12.7837 250.317 20.9359 250.029C21.9709 249.991 23.0185 249.944 24.0769 249.892C21.7873 250.718 19.8019 251.503 18.1657 252.236C16.3819 253.033 14.5351 254.315 14.8411 256.239C13.5559 260.453 14.3821 268.231 15.7285 269.626C23.7025 277.879 31.9646 285.042 46.4924 293.081C62.0552 301.689 76.3021 307.744 85.5163 311.308C90.7525 313.333 100.759 314.386 109.721 312.995C122.83 310.955 145.177 305.678 176.11 298.391C201.096 292.507 250.341 281.326 274.484 272.606C277.639 271.467 278.739 265.437 279.002 263.615C279.47 260.352 279.7 256.045 277.175 254.194L277.18 254.191ZM277.049 256.977C276.97 257.521 276.095 258.386 273.876 259.189C239.469 271.618 151.287 290.844 109.447 297.349C101.646 298.562 91.6381 297.88 86.1661 295.763C66.9565 288.333 31.3147 271.348 17.0191 256.646C16.6897 256.307 16.5493 256 16.6015 255.73C17.9173 248.857 167.749 214.488 191.405 214.488C197.471 214.488 203.478 215.377 207.051 216.947C224.896 224.789 260.651 244.307 276.115 255.643C276.495 255.92 277.123 256.466 277.049 256.977Z" fill="#E0E0E0" fill-opacity="0.8"/>
<path d="M122.553 126.077C120.458 121.809 114.926 121.104 110.918 122.877C105.779 125.15 103.167 131.036 101.594 136.071C98.127 147.159 97.902 163.942 107.257 170.928C112.631 174.942 120.469 174.202 125.339 169.643C125.883 169.133 125.318 168.01 124.569 168.322C120.593 169.972 115.772 173.48 109.78 169.936C100.847 164.651 100.629 150.084 102.854 139.908C103.916 135.055 105.572 129.664 109.35 126.207C112.831 123.022 119.106 122.189 122.287 126.284C122.411 126.444 122.63 126.241 122.551 126.079L122.553 126.077Z" fill="#E0E0E0" fill-opacity="0.8"/>
<path d="M98.3029 117.79C92.0785 120.818 88.6657 127.172 86.3959 133.428C83.7391 140.749 82.6771 148.644 83.1505 156.411C83.9803 170.051 89.8609 186.514 102.675 191.025C108.853 193.199 116.89 192.469 120.992 186.851C121.393 186.302 120.556 185.76 120.097 186.161C115.752 189.958 109.744 191.086 104.243 189.497C98.2741 187.774 93.8155 182.952 90.8869 177.658C84.1081 165.404 83.3017 150.051 87.0457 136.735C89.0113 129.744 92.3647 122.447 98.5693 118.249C98.8537 118.056 98.6107 117.641 98.3029 117.79Z" fill="#E0E0E0" fill-opacity="0.8"/>
<path d="M135.217 125.789C135.928 125.784 136.63 125.782 137.324 125.779C130.713 110.776 116.983 106.744 107.439 111.956C107.237 112.068 107.374 112.388 107.596 112.327C120.889 108.59 130.326 115.308 135.217 125.789Z" fill="#E0E0E0" fill-opacity="0.8"/>
<path d="M136.142 160.373C135.91 160.974 135.663 161.57 135.402 162.156C134.184 164.898 132.612 167.45 131.174 170.076C130.802 170.757 131.68 171.446 132.247 170.904C135.23 168.06 137.395 163.992 138.833 159.46C137.933 159.766 137.035 160.07 136.142 160.373Z" fill="#E0E0E0" fill-opacity="0.8"/>
<path d="M71.9387 129.313C80.2997 103.444 102.519 92.6367 120.596 98.7999C126.144 100.692 130.849 104.221 134.784 108.513C135.239 109.009 136.076 108.365 135.718 107.793C129.971 98.6163 117.884 94.4097 107.449 95.3493C90.7595 96.8523 75.8591 109.819 71.5949 129.22C71.5463 129.443 71.8685 129.531 71.9387 129.313Z" fill="#E0E0E0" fill-opacity="0.8"/>
<path d="M74.7282 184.604C78.0582 195.233 87.1968 203.159 97.788 206.154C108.988 209.322 120.945 206.366 130.161 199.476C134.731 196.06 140.968 189.576 142.527 184.567C142.747 183.859 141.708 183.17 141.215 183.803C139.505 185.999 138.196 188.48 136.429 190.649C131.149 197.132 124.178 201.816 116.567 204.023C99.0552 209.099 81.084 199.312 75.2646 184.455C75.1368 184.129 74.6184 184.255 74.7282 184.604Z" fill="#E0E0E0" fill-opacity="0.8"/>
<path d="M179.641 146.244C177.321 147.265 174.897 148.093 172.445 148.383C170.204 148.651 169.115 147.483 166.528 147.297C165.819 147.247 163.772 147.733 161.414 148.386C156.47 148.041 151.867 136.429 155.211 129.612C155.444 129.141 155.775 128.671 156.185 128.273C162.102 126.956 162.282 126.851 164.028 124.439C167.307 119.909 171.714 116.354 176.706 113.745C176.734 113.058 176.767 112.368 176.806 111.679C171.177 114.462 166.175 118.391 162.462 123.534C161.457 124.925 161.139 125.184 159.805 125.519C159.366 125.107 157.94 124.619 152.801 124.868C149.424 125.03 121.496 124.387 111.678 126.025C111.189 126.106 110.856 126.57 110.939 127.06C111.02 127.55 111.484 127.883 111.974 127.8C121.629 126.191 149.369 126.833 152.888 126.666C153.285 126.646 154.266 126.637 155.318 126.648C154.619 127.213 154.02 127.955 153.595 128.82C149.954 136.238 154.45 147.612 159.222 149.695C159.765 149.933 160.561 150.143 161.394 150.188C152.038 154.388 119.332 165.145 114.312 166.437C113.293 166.7 113.482 168.208 114.535 168.208C115.968 168.208 159.794 153.786 164.512 150.597C165.086 150.208 164.854 149.632 164.804 149.36C164.879 149.34 164.953 149.322 165.03 149.303C168.009 148.541 169.262 150.572 172.657 150.168C175.177 149.868 177.685 149.036 180.064 148.012C179.919 147.425 179.778 146.835 179.64 146.243L179.641 146.244Z" fill="#E0E0E0" fill-opacity="0.8"/>
<path d="M216.993 118.287C217.111 121.084 217.306 123.165 217.687 125.818C220.944 125.038 221.212 122.333 219.646 120.337C219.025 119.547 218.101 118.868 216.993 118.287Z" fill="#E0E0E0" fill-opacity="0.8"/>
<path d="M164.579 142.598C172.571 140.794 179.508 134.98 182.685 127.429C182.836 127.067 183.203 126.848 183.594 126.882C190.65 127.505 197.897 126.56 204.555 124.149C206.513 123.442 206.263 122.605 204.388 121.703C194.698 117.047 183.257 116.224 173.001 119.442C172.526 119.592 172.022 119.327 171.872 118.854C171.723 118.38 171.988 117.875 172.461 117.725C183.149 114.372 195.069 115.23 205.165 120.081C207.066 120.994 207.97 122.294 207.646 123.649C207.347 124.905 206.164 125.481 205.167 125.841C198.467 128.266 191.197 129.26 184.082 128.727C180.575 136.512 173.312 142.47 164.977 144.353C163.803 144.615 163.43 142.859 164.579 142.598Z" fill="#E0E0E0" fill-opacity="0.8"/>
<path d="M285.8 2.3344C264.398 -3.0386 241.58 2.725 221.546 18.5614C192.735 41.3368 176.029 80.0584 175.68 117.788C176.279 117.648 176.881 117.524 177.484 117.408C177.626 106.709 179.111 95.9884 181.771 85.6096C193.165 83.257 208.152 86.506 218.687 93.6016C213.608 114.12 216.097 133.999 224.062 147.539C217.213 158.108 199.303 161.906 185.135 160.983C181.895 152.759 179.734 144.174 178.555 135.434C178.047 135.983 177.516 136.512 176.965 137.018C178.378 146.694 180.965 156.105 184.804 164.943C198.455 196.348 223.763 211.527 249.489 211.527C288.637 211.523 327.105 176.42 339.752 126.032C352.84 73.8844 333.326 14.2612 285.8 2.3344ZM313.508 19.5082C315.317 36.4426 307.118 49.7752 292.019 54.5182C285.584 46.5244 276.788 42.0136 266.821 42.3412C264.785 28.6234 256.417 15.3412 244.69 7.1332C269.964 -2.81 295.256 2.662 313.506 19.5082H313.508ZM245.063 162.286C223.4 156.848 212.38 126.102 220.5 93.7492C226.588 69.4924 244.969 44.107 267.779 44.107C279.556 44.107 291.609 51.5356 297.911 68.938C307.642 95.8048 298.283 133.086 277.018 152.174C266.839 161.311 255.492 164.902 245.063 162.286ZM298.618 190.51C297.284 177.408 290.129 163.888 278.75 153.02C289.877 142.783 297.245 128.336 300.897 113.603C314.419 118.314 327.866 118.386 340.632 112.286C335.804 144.911 319.856 172.931 298.618 190.51Z" fill="#E0E0E0"/>
</svg>
