<svg width="40" height="30" viewBox="0 0 32 16" fill="none" xmlns="http://www.w3.org/2000/svg">
<g clip-path="url(#clip0_70_73)">
<mask id="mask0_70_73" style="mask-type:luminance" maskUnits="userSpaceOnUse" x="0" y="0" width="32" height="16">
<path d="M32 0H0V16H32V0Z" fill="white"/>
</mask>
<g mask="url(#mask0_70_73)">
<path d="M25.3666 0.0168457C25.8443 0.0168458 26.322 0.0168458 26.8024 0.0230322C26.8575 0.0362268 26.9098 0.0426231 26.962 0.0503539C27.1442 0.0773364 27.3267 0.101952 27.5082 0.132768C27.7334 0.171001 27.9588 0.209188 28.1819 0.257675C28.323 0.288342 28.4609 0.335168 28.5987 0.379399C28.8066 0.446109 29.0143 0.51352 29.2197 0.5873C29.3283 0.626305 29.4334 0.67622 29.5373 0.72695C29.6671 0.79035 29.7969 0.854666 29.9213 0.927861C30.0383 0.996676 30.1501 1.07476 30.2605 1.15388C30.3809 1.24016 30.5039 1.32485 30.6135 1.42376C30.7589 1.55491 30.8969 1.69506 31.0298 1.83899C31.1519 1.97124 31.2771 2.1044 31.3756 2.2538C31.5088 2.45569 31.6204 2.67216 31.7367 2.88483C31.851 3.09367 31.9303 3.31657 31.9878 3.54743C31.9891 3.55237 32.0068 3.5532 32.0168 3.55594C32.0168 4.49456 32.0168 5.43316 32.0101 6.37956C31.9694 6.49006 31.9368 6.59321 31.9013 6.69536C31.8576 6.82111 31.8236 6.95221 31.7636 7.06981C31.6817 7.23031 31.5872 7.38591 31.4831 7.53301C31.3849 7.67191 31.2786 7.80906 31.155 7.92481C31.0355 8.03671 30.8924 8.12481 30.7542 8.21496C30.6459 8.28556 30.5339 8.35401 30.4153 8.40406C30.2679 8.46631 30.1138 8.51491 29.9593 8.55771C29.8268 8.59446 29.6904 8.61836 29.5546 8.64146C29.3809 8.67106 29.206 8.69266 29.0321 8.72046C28.827 8.75326 28.6228 8.79191 28.4174 8.82251C28.24 8.84896 28.061 8.86436 27.8836 8.89051C27.6067 8.93136 27.3305 8.97721 27.054 9.02096C26.9223 9.04181 26.7908 9.06416 26.6588 9.08336C26.5265 9.10256 26.3936 9.11816 26.2611 9.13631C26.1207 9.15556 25.9805 9.17531 25.8403 9.19601C25.7216 9.21361 25.6033 9.23406 25.4846 9.25111C25.3337 9.27276 25.1824 9.29121 25.0316 9.31311C24.9208 9.32921 24.8108 9.35091 24.6999 9.36611C24.5195 9.39091 24.3383 9.40991 24.1581 9.43601C23.9576 9.46506 23.7579 9.49931 23.5578 9.53121C23.4209 9.55306 23.2841 9.57611 23.147 9.59621C22.9856 9.61981 22.8241 9.64226 22.6623 9.66256C22.4708 9.68656 22.2781 9.70246 22.0874 9.73156C21.8799 9.76321 21.6742 9.80631 21.4677 9.84391C21.2507 9.88341 21.0335 9.92216 20.8165 9.96161C20.7396 9.97561 20.6904 10.0003 20.7225 10.0992C20.7696 10.2444 20.7873 10.4004 20.8452 10.5404C20.9025 10.6787 20.9868 10.8078 21.073 10.9314C21.1323 11.0164 21.2102 11.0905 21.2883 11.16C21.4353 11.2907 21.5934 11.4064 21.7777 11.4818C21.9554 11.5545 22.1286 11.6403 22.3102 11.7008C22.4824 11.7582 22.6629 11.791 22.84 11.8332C22.92 11.8522 22.9999 11.8739 23.0812 11.8839C23.2492 11.9046 23.4181 11.9183 23.5867 11.935C23.8062 11.9567 24.0259 11.9974 24.2453 11.9963C24.6391 11.9944 25.0329 11.9678 25.4266 11.9507C25.5158 11.9469 25.6059 11.9463 25.6939 11.9329C25.9204 11.8984 26.1468 11.8622 26.3715 11.8181C26.6233 11.7687 26.8744 11.7144 27.1238 11.654C27.3749 11.5932 27.6257 11.5291 27.8727 11.4536C28.1107 11.3809 28.3444 11.2939 28.5785 11.2092C28.7998 11.129 29.0254 11.0857 29.2619 11.0936C29.4048 11.0984 29.5252 11.157 29.6127 11.2566C29.7303 11.3905 29.7823 11.5614 29.7929 11.739C29.8011 11.8756 29.803 12.0138 29.7921 12.15C29.7822 12.2739 29.7612 12.399 29.7271 12.5185C29.6818 12.6773 29.6249 12.8335 29.5617 12.9862C29.5213 13.0835 29.4684 13.1781 29.4067 13.2635C29.3258 13.3755 29.2336 13.4798 29.1411 13.5827C29.0548 13.6786 28.9699 13.7784 28.8697 13.8581C28.7286 13.9704 28.5747 14.067 28.4248 14.1681C28.2641 14.2764 28.1037 14.3856 27.9391 14.4878C27.8209 14.5611 27.6968 14.6252 27.5736 14.6902C27.4692 14.7453 27.3622 14.7955 27.2567 14.8485C27.1603 14.8969 27.0662 14.9505 26.9675 14.9938C26.8328 15.0531 26.6946 15.1048 26.558 15.16C26.4364 15.2091 26.3174 15.2666 26.1927 15.3062C25.9643 15.3786 25.7326 15.441 25.502 15.5066C25.3828 15.5405 25.2646 15.5819 25.143 15.6032C24.8857 15.6483 24.6237 15.6697 24.3687 15.7243C24.0971 15.7823 23.8225 15.7907 23.5491 15.7988C23.1779 15.8097 22.8057 15.7919 22.434 15.7864C22.4257 15.7863 22.4174 15.7871 22.4093 15.786C22.2023 15.7588 21.9946 15.7353 21.7884 15.703C21.5915 15.6721 21.3949 15.6369 21.2002 15.5944C21.0511 15.5618 20.9046 15.5166 20.758 15.4736C20.5108 15.4011 20.2641 15.3267 20.0178 15.2512C19.9478 15.2298 19.8796 15.2026 19.8108 15.1774C19.6309 15.1115 19.4487 15.051 19.2719 14.9776C19.1271 14.9175 18.9909 14.8372 18.8471 14.7743C18.5806 14.6578 18.34 14.4991 18.1089 14.3261C17.9382 14.1983 17.7701 14.066 17.6112 13.9241C17.4535 13.7832 17.2939 13.6397 17.1616 13.476C16.9346 13.1952 16.7363 12.8924 16.5779 12.5663C16.4482 12.2994 16.3193 12.032 16.2426 11.7432C16.1912 11.5494 16.1264 11.3586 16.0855 11.1627C16.0496 10.9905 16.0357 10.8133 16.0171 10.6378C15.9925 10.4049 15.9658 10.1717 15.9534 9.93796C15.9455 9.78911 15.9585 9.63876 15.9682 9.48951C15.9813 9.28761 15.9952 9.08551 16.018 8.88456C16.0519 8.58426 16.0801 8.28226 16.1364 7.98586C16.1889 7.70921 16.2674 7.43666 16.3483 7.16641C16.428 6.89981 16.517 6.63531 16.6171 6.37571C16.6944 6.17541 16.7918 5.98256 16.8864 5.78946C16.965 5.62901 17.0519 5.47261 17.1365 5.31516C17.2048 5.18816 17.2694 5.05856 17.3463 4.93683C17.4402 4.7881 17.5436 4.64519 17.6459 4.50192C17.7884 4.30235 17.9298 4.10177 18.079 3.9073C18.2037 3.74489 18.3291 3.58104 18.4717 3.43492C18.713 3.18772 18.9661 2.95194 19.218 2.71541C19.3693 2.57337 19.5227 2.43256 19.6845 2.30293C19.8701 2.1543 20.0641 2.01591 20.2581 1.8783C20.3969 1.77991 20.5394 1.68628 20.6844 1.59744C20.8678 1.48513 21.053 1.37504 21.2422 1.27296C21.4081 1.18347 21.5801 1.10529 21.7503 1.02406C21.9613 0.9234 22.1697 0.816075 22.3858 0.727735C22.5896 0.64443 22.8004 0.57713 23.0108 0.511695C23.2571 0.435125 23.5055 0.364967 23.7547 0.298288C23.903 0.25861 24.0538 0.227401 24.2047 0.198912C24.3618 0.169256 24.5201 0.146187 24.6783 0.1226C24.8158 0.102097 24.9535 0.0829084 25.0916 0.0669704C25.1748 0.0573649 25.2589 0.0560149 25.3424 0.0481545C25.3514 0.0473103 25.3586 0.027733 25.3666 0.0168457ZM23.3173 4.24631C23.2182 4.30185 23.1168 4.35376 23.0204 4.41365C22.7556 4.57815 22.5449 4.8051 22.3269 5.02341C22.1489 5.20171 22.0188 5.41611 21.9041 5.63516C21.8023 5.82941 21.7384 6.04366 21.6607 6.25026C21.648 6.28416 21.6447 6.32471 21.6494 6.36056C21.6515 6.37676 21.6855 6.40251 21.7026 6.40071C21.8192 6.38871 21.9352 6.37081 22.0513 6.35421C22.1861 6.33491 22.321 6.31631 22.4555 6.29506C22.6712 6.26096 22.8863 6.22336 23.102 6.19016C23.2815 6.16251 23.4618 6.14026 23.6414 6.11331C23.7493 6.09716 23.8562 6.07461 23.964 6.05846C24.1409 6.03191 24.3184 6.00956 24.4954 5.98301C24.685 5.95461 24.8741 5.92206 25.0637 5.89376C25.2485 5.86621 25.4339 5.84276 25.6188 5.81551C25.7268 5.79956 25.8338 5.77731 25.9419 5.76231C26.0877 5.74206 26.2344 5.72806 26.3801 5.70761C26.5066 5.68991 26.632 5.66341 26.7587 5.64761C26.8633 5.63456 26.9024 5.60951 26.8967 5.53216C26.8883 5.41691 26.8895 5.29831 26.8613 5.18756C26.7978 4.93833 26.7313 4.68985 26.5705 4.47692C26.471 4.34511 26.349 4.23912 26.2136 4.15698C26.0855 4.07928 25.937 4.03088 25.7924 3.98622C25.6768 3.95055 25.5539 3.93839 25.4337 3.91847C25.2995 3.89622 25.1653 3.87068 25.03 3.85846C24.9248 3.84896 24.8172 3.85053 24.7119 3.8601C24.5711 3.87288 24.4309 3.89513 24.2915 3.91907C24.1848 3.93739 24.0783 3.96005 23.9741 3.98915C23.8602 4.02094 23.7476 4.05863 23.637 4.10068C23.5312 4.14093 23.4288 4.19006 23.3173 4.24631Z" fill="#E0E0E0"/>
<path d="M7.19356 16.0164C6.75976 16.0164 6.32591 16.0164 5.88426 16.0094C5.86396 15.9961 5.85201 15.9859 5.83891 15.9841C5.76206 15.9734 5.68381 15.9702 5.60821 15.9541C5.43756 15.9178 5.26506 15.8854 5.09901 15.8334C4.80329 15.7408 4.50388 15.6527 4.22145 15.5278C4.05349 15.4535 3.90086 15.3359 3.76983 15.192C3.61189 15.0185 3.49209 14.827 3.40904 14.6113C3.35994 14.4838 3.32108 14.352 3.28392 14.2204C3.24949 14.0984 3.21664 13.9753 3.19588 13.8505C3.17953 13.7523 3.18769 13.6502 3.17589 13.5509C3.1589 13.408 3.13152 13.2664 3.11257 13.1236C3.09316 12.9775 3.08004 12.8305 3.06146 12.6842C3.04261 12.5358 3.02156 12.3877 2.99938 12.2398C2.98359 12.1344 2.95968 12.0301 2.94769 11.9244C2.9274 11.7454 2.91731 11.5651 2.89596 11.3863C2.8802 11.2542 2.83885 11.1238 2.83548 10.992C2.83209 10.8597 2.75275 10.7444 2.77701 10.6051C2.79196 10.5193 2.76037 10.4252 2.74902 10.3349C2.733 10.2075 2.7167 10.08 2.69989 9.95267C2.6838 9.83072 2.66468 9.70912 2.65084 9.58692C2.62696 9.37617 2.60784 9.16492 2.58348 8.95422C2.56443 8.78947 2.53933 8.62547 2.51899 8.46087C2.50057 8.31182 2.4879 8.16197 2.46744 8.01322C2.43178 7.75397 2.38805 7.49577 2.3552 7.23622C2.32251 6.97792 2.30174 6.71812 2.27082 6.45957C2.23556 6.16472 2.19573 5.87042 2.15615 5.57612C2.13659 5.43067 2.11464 5.28552 2.09104 5.14067C2.05939 4.94644 2.02275 4.75298 1.99255 4.55852C1.95835 4.33828 1.88613 4.1286 1.78989 3.93116C1.69957 3.74588 1.60494 3.55834 1.4497 3.41272C1.37408 3.34178 1.30705 3.2613 1.2287 3.19375C1.05684 3.0456 0.854163 2.94871 0.645428 2.86524C0.523783 2.8166 0.397972 2.77843 0.275785 2.73104C0.187893 2.69695 0.102892 2.6554 0.0166016 2.61718C0.0166015 2.35346 0.0166015 2.08974 0.0229805 1.81831C0.0375818 1.81039 0.0508381 1.81338 0.0532926 1.80951C0.119801 1.70475 0.240651 1.68359 0.339435 1.6365C0.509633 1.55537 0.691798 1.49944 0.868668 1.43222C1.05559 1.36118 1.24194 1.28864 1.42901 1.21799C1.60852 1.15019 1.78913 1.08526 1.96832 1.01664C2.10108 0.965792 2.23118 0.907847 2.36459 0.858862C2.51972 0.801902 2.6773 0.751632 2.83357 0.697772C2.96544 0.652317 3.09625 0.603672 3.22884 0.560432C3.39886 0.504982 3.57021 0.453584 3.74095 0.400321C3.83391 0.371319 3.92595 0.338893 4.01992 0.313627C4.19285 0.267129 4.36652 0.223256 4.54057 0.181132C4.70736 0.140767 4.87535 0.105394 5.04206 0.0646291C5.08046 0.0552316 5.11571 0.032794 5.15241 0.0163574C5.29541 0.0163575 5.43841 0.0163575 5.58416 0.0223801C5.60896 0.0353615 5.63056 0.0448086 5.65311 0.0488126C5.72111 0.0608796 5.79081 0.0657466 5.85751 0.0826001C6.02751 0.125566 6.18256 0.199948 6.33046 0.296609C6.54271 0.435272 6.67576 0.638287 6.79221 0.850472C6.86566 0.984232 6.90686 1.13684 6.95321 1.28394C6.98646 1.38962 7.01016 1.49923 7.02746 1.60876C7.05011 1.7517 7.06336 1.89617 7.07856 2.0402C7.10136 2.25683 7.12531 2.47342 7.14286 2.6905C7.15076 2.78862 7.13866 2.88829 7.14541 2.98658C7.16421 3.25852 7.19221 3.52985 7.20886 3.80189C7.22516 4.06773 7.23251 4.33413 7.24276 4.60033C7.25441 4.90213 7.26521 5.20397 7.27571 5.50582C7.28191 5.68277 7.28606 5.85977 7.29251 6.03672C7.30281 6.31937 7.31681 6.60192 7.32456 6.88462C7.33306 7.19317 7.33531 7.50192 7.34216 7.81052C7.34481 7.92997 7.35311 8.04927 7.35806 8.16867C7.36931 8.44027 7.38106 8.71192 7.39086 8.98362C7.40281 9.31557 7.41246 9.64762 7.42446 9.97957C7.42706 10.0524 7.43481 10.1251 7.44076 10.1978C7.46246 10.4639 7.47921 10.7306 7.50841 10.9959C7.52401 11.1377 7.56021 11.2774 7.59026 11.4174C7.59361 11.4328 7.61616 11.4506 7.63286 11.4545C7.64696 11.4579 7.67366 11.4475 7.68076 11.4352C7.76121 11.2955 7.84636 11.1577 7.91551 11.0124C7.99651 10.8423 8.06211 10.6649 8.13606 10.4914C8.18231 10.3829 8.23456 10.277 8.27911 10.1679C8.34551 10.0051 8.40536 9.83967 8.47186 9.67702C8.54821 9.49027 8.62996 9.30572 8.70726 9.11937C8.77761 8.94972 8.84376 8.77827 8.91426 8.60872C8.98086 8.44862 9.05196 8.29042 9.11881 8.13042C9.19351 7.95157 9.26361 7.77072 9.33956 7.59242C9.40456 7.43997 9.47681 7.29067 9.54236 7.13842C9.59091 7.02567 9.63076 6.90912 9.68021 6.79677C9.73096 6.68137 9.79071 6.56992 9.84286 6.45502C9.93066 6.26167 10.013 6.06572 10.1024 5.87312C10.192 5.68027 10.2874 5.49012 10.3802 5.29882C10.4868 5.07937 10.5896 4.85799 10.701 4.64097C10.8103 4.42785 10.927 4.21846 11.0427 4.00866C11.1738 3.77088 11.3032 3.53197 11.4412 3.29817C11.5727 3.07527 11.7116 2.85659 11.8523 2.63928C11.982 2.4388 12.1138 2.23931 12.2534 2.04562C12.3587 1.89939 12.4743 1.76009 12.5919 1.62326C12.6651 1.53803 12.7482 1.46078 12.8307 1.38415C12.9572 1.26667 13.0778 1.1398 13.2177 1.0405C13.4224 0.895157 13.6374 0.762492 13.8567 0.640037C14.0164 0.550842 14.1893 0.48465 14.3583 0.412838C14.4158 0.388389 14.4791 0.376969 14.5402 0.361517C14.6938 0.322697 14.8462 0.277088 15.0018 0.249069C15.152 0.22202 15.3055 0.213527 15.4575 0.196953C15.6578 0.175127 15.8578 0.151297 16.0584 0.132417C16.1663 0.122253 16.2751 0.120296 16.3835 0.115211C16.6222 0.104014 16.8609 0.0924926 17.0997 0.0824426C17.2602 0.0756886 17.4207 0.0681901 17.5812 0.0664081C17.8688 0.0632171 18.1568 0.0555766 18.4409 0.115051C18.5569 0.139327 18.6701 0.173416 18.7449 0.271612C18.8362 0.391463 18.8196 0.540432 18.7676 0.654797C18.6874 0.831157 18.5688 0.991912 18.4536 1.14996C18.3658 1.27062 18.2535 1.3732 18.1602 1.49028C17.9942 1.69842 17.8285 1.90721 17.6737 2.12359C17.5116 2.35015 17.3611 2.58509 17.2082 2.81812C17.1357 2.92866 17.0688 3.0429 17.0005 3.15618C16.9134 3.30076 16.825 3.44463 16.7418 3.59143C16.6447 3.76262 16.5532 3.93695 16.4581 4.10931C16.4111 4.19465 16.3586 4.27711 16.3139 4.3636C16.2452 4.49623 16.1841 4.63276 16.1144 4.76483C16.0074 4.96766 15.8931 5.16662 15.7873 5.37002C15.6976 5.54252 15.6162 5.71937 15.53 5.89372C15.4113 6.13372 15.2927 6.37372 15.1719 6.61272C15.0654 6.82357 14.9542 7.03207 14.8484 7.24327C14.7567 7.42627 14.6706 7.61202 14.5805 7.79582C14.5099 7.93987 14.4369 8.08277 14.3653 8.22627C14.2786 8.39987 14.1926 8.57387 14.1054 8.74722C14.0309 8.89532 13.9562 9.04332 13.8794 9.19022C13.8148 9.31382 13.7434 9.43402 13.6816 9.55892C13.5968 9.73017 13.5212 9.90592 13.4362 10.0771C13.3392 10.2722 13.2351 10.4637 13.1364 10.658C13.0722 10.7843 13.0147 10.914 12.9496 11.0398C12.8797 11.175 12.8031 11.3067 12.7318 11.4412C12.6349 11.6242 12.5407 11.8087 12.4442 11.992C12.3802 12.1135 12.3135 12.2336 12.2491 12.3549C12.1702 12.5032 12.0934 12.6527 12.0137 12.8006C11.9524 12.9143 11.8891 13.027 11.8244 13.1388C11.7534 13.2614 11.6874 13.3879 11.6053 13.5028C11.4855 13.6707 11.3564 13.8324 11.2253 13.9918C11.1414 14.0939 11.0512 14.1919 10.9556 14.2831C10.8553 14.3788 10.7472 14.4667 10.6389 14.5535C10.4964 14.6675 10.3525 14.7801 10.2053 14.888C9.97891 15.0538 9.73491 15.1893 9.48516 15.318C9.18696 15.4716 8.88011 15.6004 8.56186 15.7024C8.38401 15.7595 8.20266 15.8067 8.02096 15.8504C7.85861 15.8895 7.69416 15.9204 7.52966 15.9496C7.43486 15.9664 7.33796 15.9712 7.24246 15.9847C7.22501 15.9871 7.20981 16.0054 7.19356 16.0164Z" fill="#E0E0E0"/>
</g>
</g>
<defs>
<clipPath id="clip0_70_73">
<rect width="40" height="30" fill="white"/>
</clipPath>
</defs>
</svg>
