<svg width="360" height="360" viewBox="0 0 360 360" fill="none" xmlns="http://www.w3.org/2000/svg">
<path d="M210.452 290.413C206.472 287.479 203.913 286.57 199.535 284.931C194.299 282.969 188.807 283.732 184.07 284.601C177.198 285.863 150.909 290.095 155.648 294.933C158.848 298.195 165.114 302.058 171.303 302.821C178.123 303.669 185.369 301.21 191.437 299.685C195.834 298.575 198.185 298.269 206.31 296.217C208.373 295.693 211.77 295.248 212.173 293.31C212.466 291.9 210.951 290.781 210.452 290.413ZM206.823 294.246C204.651 294.737 202.997 295.263 196.119 296.758C185.591 299.043 178.778 301.933 171.522 301.035C165.762 300.322 159.921 296.721 156.919 293.799C157.327 292.741 163.305 290.656 170.248 289.155C175.356 288.052 180.491 287.087 184.394 286.371C189.351 285.462 194.2 284.855 198.903 286.615C203.238 288.239 205.594 289.067 209.383 291.862C210.362 292.584 210.411 292.939 210.411 292.939C210.218 293.472 207.752 294.031 206.823 294.246Z" fill="#E0E0E0" fill-opacity="0.8"/>
<path d="M239.043 262.533C237.468 261.343 234.928 259.964 231.714 258.218C225.631 254.912 216.156 249.589 207.253 245.678C203.873 244.193 197.582 243.629 192.292 244.337C184.365 245.397 125.427 256.093 97.0354 262.609C64.1476 270.158 51.4162 274.35 46.5274 276.541C45.1972 277.136 44.4376 277.876 44.2738 278.74C44.0578 279.869 44.8786 280.551 45.415 281.114C49.7998 285.715 54.9478 288.804 61.1056 292.21C69.8806 297.064 77.563 301.719 87.0832 301.719C92.8954 301.719 101.949 299.134 114.981 295.633C144.435 287.724 152.315 285.874 201.61 275.842C220.469 272.005 235.364 268.973 238.12 267.978C241.498 266.756 242.013 264.783 239.041 262.537L239.043 262.533ZM46.7218 279.872C46.1278 279.25 45.4024 279.016 47.2654 278.182C51.2056 276.418 62.9668 272.275 97.4386 264.362C125.79 257.855 184.622 247.177 192.531 246.121C196.704 245.563 203.043 245.793 206.53 247.325C208.042 247.989 210.02 248.9 212.47 250.093C159.179 258.677 105.314 270.302 52.3036 284.686C49.2166 282.488 47.8036 281.006 46.7218 279.872ZM54.2656 286.028C107.553 271.627 161.691 259.993 215.226 251.461C220.845 254.289 225.068 256.634 228.533 258.533C174.423 266.482 120.437 278.38 68.023 293.952C63.7084 291.626 58.1842 288.608 54.2656 286.028ZM237.51 266.282C232.237 268.187 175.712 278.852 148.08 285.319C120.995 291.659 100.896 298.083 90.9838 299.626C86.0644 300.389 80.686 299.503 77.5342 298.285C74.3356 297.046 72.8218 296.445 70.318 295.163C122.851 279.651 176.937 267.798 231.136 259.954C234.145 261.588 236.536 262.895 237.956 263.969C239.58 265.197 239.659 265.507 237.508 266.282H237.51Z" fill="#E0E0E0" fill-opacity="0.8"/>
<path d="M285.18 277.191C269.6 265.766 233.9 246.263 215.776 238.298C212.45 236.836 207.163 235.931 201.624 235.735C208.059 232.885 211.163 227.928 211.748 222.586C212.932 211.753 213.724 197.769 214.149 182.89C210.241 183.945 206.128 184.584 202.103 184.863C201.866 194.628 201.405 203.664 200.688 210.996C200.282 215.148 197.569 218.833 193.604 220.615C165.255 233.353 87.0508 252.703 39.1528 255.238C32.8546 255.562 27.2223 251.391 26.0757 245.512C19.4355 211.431 19.7793 166.941 25.3071 140.562C25.9929 137.293 28.1511 134.413 31.2309 132.662C58.3659 117.234 154.77 96.5663 187.026 96.6023C193.294 96.6095 198.599 101.057 199.436 106.956C204.011 107.123 208.707 107.949 213.198 109.314C212.966 105.89 212.703 102.744 212.41 99.9431C211.575 91.9187 204.908 85.7393 196.899 85.5719C161.119 84.8321 52.5231 107.168 21.5037 125.017C17.5636 127.283 14.761 131.094 13.816 135.471C7.00477 167.002 5.87437 219.553 12.601 259.695C13.9006 267.453 20.7837 273.317 28.9359 273.029C29.9709 272.991 31.0185 272.944 32.0769 272.892C29.7873 273.718 27.8019 274.503 26.1657 275.236C24.3819 276.033 22.5351 277.315 22.8411 279.239C21.5559 283.453 22.3821 291.231 23.7285 292.626C31.7025 300.879 39.9646 308.042 54.4924 316.081C70.0552 324.689 84.3021 330.744 93.5163 334.308C98.7525 336.333 108.759 337.386 117.721 335.995C130.83 333.955 153.177 328.678 184.11 321.391C209.096 315.507 258.341 304.326 282.484 295.606C285.639 294.467 286.739 288.437 287.002 286.615C287.47 283.352 287.7 279.045 285.175 277.194L285.18 277.191ZM285.049 279.977C284.97 280.521 284.095 281.386 281.876 282.189C247.469 294.618 159.287 313.844 117.447 320.349C109.646 321.562 99.6381 320.88 94.1661 318.763C74.9565 311.333 39.3147 294.348 25.0191 279.646C24.6897 279.307 24.5493 279 24.6015 278.73C25.9173 271.857 175.749 237.488 199.405 237.488C205.471 237.488 211.478 238.377 215.051 239.947C232.896 247.789 268.651 267.307 284.115 278.643C284.495 278.92 285.123 279.466 285.049 279.977Z" fill="#E0E0E0" fill-opacity="0.8"/>
<path d="M130.553 149.077C128.458 144.809 122.926 144.104 118.918 145.877C113.779 148.15 111.167 154.036 109.594 159.071C106.127 170.159 105.902 186.942 115.257 193.928C120.631 197.942 128.469 197.202 133.339 192.643C133.883 192.133 133.318 191.01 132.569 191.322C128.593 192.972 123.772 196.48 117.78 192.936C108.847 187.651 108.629 173.084 110.854 162.908C111.916 158.055 113.572 152.664 117.35 149.207C120.831 146.022 127.106 145.189 130.287 149.284C130.411 149.444 130.63 149.241 130.551 149.079L130.553 149.077Z" fill="#E0E0E0" fill-opacity="0.8"/>
<path d="M106.303 140.79C100.079 143.818 96.6657 150.172 94.3959 156.428C91.7391 163.749 90.6771 171.644 91.1505 179.411C91.9803 193.051 97.8609 209.514 110.675 214.025C116.853 216.199 124.89 215.469 128.992 209.851C129.393 209.302 128.556 208.76 128.097 209.161C123.752 212.958 117.744 214.086 112.243 212.497C106.274 210.774 101.816 205.952 98.8869 200.658C92.1081 188.404 91.3017 173.051 95.0457 159.735C97.0113 152.744 100.365 145.447 106.569 141.249C106.854 141.056 106.611 140.641 106.303 140.79Z" fill="#E0E0E0" fill-opacity="0.8"/>
<path d="M143.217 148.789C143.928 148.784 144.63 148.782 145.324 148.779C138.713 133.776 124.983 129.744 115.439 134.956C115.237 135.068 115.374 135.388 115.596 135.327C128.889 131.59 138.326 138.308 143.217 148.789Z" fill="#E0E0E0" fill-opacity="0.8"/>
<path d="M144.142 183.373C143.91 183.974 143.663 184.57 143.402 185.156C142.184 187.898 140.612 190.45 139.174 193.076C138.802 193.757 139.68 194.446 140.247 193.904C143.23 191.06 145.395 186.992 146.833 182.46C145.933 182.766 145.035 183.07 144.142 183.373Z" fill="#E0E0E0" fill-opacity="0.8"/>
<path d="M79.9387 152.313C88.2997 126.444 110.519 115.637 128.596 121.8C134.144 123.692 138.849 127.221 142.784 131.513C143.239 132.009 144.076 131.365 143.718 130.793C137.971 121.616 125.884 117.41 115.449 118.349C98.7595 119.852 83.8591 132.819 79.5949 152.22C79.5463 152.443 79.8685 152.531 79.9387 152.313Z" fill="#E0E0E0" fill-opacity="0.8"/>
<path d="M82.7282 207.604C86.0582 218.233 95.1968 226.159 105.788 229.154C116.988 232.322 128.945 229.366 138.161 222.476C142.731 219.06 148.968 212.576 150.527 207.567C150.747 206.859 149.708 206.17 149.215 206.803C147.505 208.999 146.196 211.48 144.429 213.649C139.149 220.132 132.178 224.816 124.567 227.023C107.055 232.099 89.084 222.312 83.2646 207.455C83.1368 207.129 82.6184 207.255 82.7282 207.604Z" fill="#E0E0E0" fill-opacity="0.8"/>
<path d="M187.641 169.244C185.321 170.265 182.897 171.093 180.445 171.383C178.204 171.651 177.115 170.483 174.528 170.297C173.819 170.247 171.772 170.733 169.414 171.386C164.47 171.041 159.867 159.429 163.211 152.612C163.444 152.141 163.775 151.671 164.185 151.273C170.102 149.956 170.282 149.851 172.028 147.439C175.307 142.909 179.714 139.354 184.706 136.745C184.734 136.058 184.767 135.368 184.806 134.679C179.177 137.462 174.175 141.391 170.462 146.534C169.457 147.925 169.139 148.184 167.805 148.519C167.366 148.107 165.94 147.619 160.801 147.868C157.424 148.03 129.496 147.387 119.678 149.025C119.189 149.106 118.856 149.57 118.939 150.06C119.02 150.55 119.484 150.883 119.974 150.8C129.629 149.191 157.369 149.833 160.888 149.666C161.285 149.646 162.266 149.637 163.318 149.648C162.619 150.213 162.02 150.955 161.595 151.82C157.954 159.238 162.45 170.612 167.222 172.695C167.765 172.933 168.561 173.143 169.394 173.188C160.038 177.388 127.332 188.145 122.312 189.437C121.293 189.7 121.482 191.208 122.535 191.208C123.968 191.208 167.794 176.786 172.512 173.597C173.086 173.208 172.854 172.632 172.804 172.36C172.879 172.34 172.953 172.322 173.03 172.303C176.009 171.541 177.262 173.572 180.657 173.168C183.177 172.868 185.685 172.036 188.064 171.012C187.919 170.425 187.778 169.835 187.64 169.243L187.641 169.244Z" fill="#E0E0E0" fill-opacity="0.8"/>
<path d="M224.993 141.287C225.111 144.084 225.306 146.165 225.687 148.818C228.944 148.038 229.212 145.333 227.646 143.337C227.025 142.547 226.101 141.868 224.993 141.287Z" fill="#E0E0E0" fill-opacity="0.8"/>
<path d="M172.579 165.598C180.571 163.794 187.508 157.98 190.685 150.429C190.836 150.067 191.203 149.848 191.594 149.882C198.65 150.505 205.897 149.56 212.555 147.149C214.513 146.442 214.263 145.605 212.388 144.703C202.698 140.047 191.257 139.224 181.001 142.442C180.526 142.592 180.022 142.327 179.872 141.854C179.723 141.38 179.988 140.875 180.461 140.725C191.149 137.372 203.069 138.23 213.165 143.081C215.066 143.994 215.97 145.294 215.646 146.649C215.347 147.905 214.164 148.481 213.167 148.841C206.467 151.266 199.197 152.26 192.082 151.727C188.575 159.512 181.312 165.47 172.977 167.353C171.803 167.615 171.43 165.859 172.579 165.598Z" fill="#E0E0E0" fill-opacity="0.8"/>
<path d="M293.8 25.3344C272.398 19.9614 249.58 25.725 229.546 41.5614C200.735 64.3368 184.029 103.058 183.68 140.788C184.279 140.648 184.881 140.524 185.484 140.408C185.626 129.709 187.111 118.988 189.771 108.61C201.165 106.257 216.152 109.506 226.687 116.602C221.608 137.12 224.097 156.999 232.062 170.539C225.213 181.108 207.303 184.906 193.135 183.983C189.895 175.759 187.734 167.174 186.555 158.434C186.047 158.983 185.516 159.512 184.965 160.018C186.378 169.694 188.965 179.105 192.804 187.943C206.455 219.348 231.763 234.527 257.489 234.527C296.637 234.523 335.105 199.42 347.752 149.032C360.84 96.8844 341.326 37.2612 293.8 25.3344ZM321.508 42.5082C323.317 59.4426 315.118 72.7752 300.019 77.5182C293.584 69.5244 284.788 65.0136 274.821 65.3412C272.785 51.6234 264.417 38.3412 252.69 30.1332C277.964 20.19 303.256 25.662 321.506 42.5082H321.508ZM253.063 185.286C231.4 179.848 220.38 149.102 228.5 116.749C234.588 92.4924 252.969 67.107 275.779 67.107C287.556 67.107 299.609 74.5356 305.911 91.938C315.642 118.805 306.283 156.086 285.018 175.174C274.839 184.311 263.492 187.902 253.063 185.286ZM306.618 213.51C305.284 200.408 298.129 186.888 286.75 176.02C297.877 165.783 305.245 151.336 308.897 136.603C322.419 141.314 335.866 141.386 348.632 135.286C343.804 167.911 327.856 195.931 306.618 213.51Z" fill="#E0E0E0"/>
</svg>
